<?xml version="1.0" standalone="no"?>
<!DOCTYPE svg PUBLIC "-//W3C//DTD SVG 20010904//EN"
 "http://www.w3.org/TR/2001/REC-SVG-20010904/DTD/svg10.dtd">
<svg version="1.0" xmlns="http://www.w3.org/2000/svg"
 width="472.000000pt" height="459.000000pt" viewBox="0 0 472.000000 459.000000"
 preserveAspectRatio="xMidYMid meet">

<g transform="translate(0.000000,459.000000) scale(0.100000,-0.100000)"
fill="#000000" stroke="none">
<path d="M1083 4233 c29 -227 45 -934 24 -1070 l-8 -53 65 0 65 0 6 58 c15
134 49 325 76 431 80 312 223 460 504 522 97 22 122 22 798 26 383 3 697 2
697 0 0 -3 -66 -110 -147 -239 -80 -128 -229 -366 -331 -528 -102 -162 -228
-362 -280 -445 -225 -357 -323 -516 -328 -530 -5 -13 26 -15 238 -15 221 0
246 2 259 18 9 9 51 76 96 147 44 72 133 216 198 320 65 105 150 242 190 305
40 63 159 255 265 425 106 171 228 366 271 436 75 119 79 128 79 183 l0 57
-72 -8 c-97 -10 -2479 -10 -2587 1 l-84 8 6 -49z"/>
<path d="M1240 2325 c0 -12 18 -15 106 -15 l106 0 -17 -27 c-10 -16 -58 -83
-106 -149 -49 -67 -89 -129 -89 -138 0 -15 16 -16 135 -14 166 4 186 21 32 28
l-107 5 110 154 c60 84 107 157 104 162 -3 5 -66 9 -140 9 -112 0 -134 -2
-134 -15z"/>
<path d="M1760 2318 c-58 -40 -74 -71 -78 -151 -2 -60 1 -78 20 -111 62 -107
215 -107 275 0 29 50 31 152 5 204 -39 78 -150 106 -222 58z m152 -35 c84 -88
39 -277 -66 -277 -71 0 -116 59 -116 154 0 97 41 150 115 150 32 0 47 -6 67
-27z"/>
<path d="M2194 2327 c-2 -7 -3 -87 -2 -177 l3 -165 118 -3 c100 -2 117 0 117
13 0 12 -16 15 -95 15 l-95 0 0 165 c0 159 -1 165 -20 165 -11 0 -23 -6 -26
-13z"/>
<path d="M2671 2323 c-73 -36 -110 -150 -77 -236 43 -112 165 -147 254 -72 91
76 80 254 -18 306 -43 23 -114 24 -159 2z m135 -28 c50 -34 70 -147 40 -220
-19 -45 -71 -78 -111 -70 -101 19 -139 199 -59 279 31 30 95 36 130 11z"/>
<path d="M3057 2333 c-17 -17 -2 -23 53 -23 l60 0 2 -162 c3 -160 3 -163 26
-166 l22 -3 0 165 0 166 60 0 c47 0 60 3 60 15 0 13 -22 15 -138 15 -76 0
-142 -3 -145 -7z"/>
<path d="M3575 2321 c-59 -36 -85 -88 -85 -170 0 -102 68 -175 161 -174 98 1
163 76 163 188 1 70 -22 118 -74 152 -42 29 -122 31 -165 4z m142 -33 c34 -38
45 -68 46 -127 1 -119 -81 -191 -161 -141 -42 26 -62 73 -62 145 0 95 38 145
110 145 35 0 51 -5 67 -22z"/>
<path d="M1599 1418 c-677 -1079 -609 -964 -609 -1022 l0 -51 1380 0 c1377 0
1380 0 1380 20 0 11 -7 104 -16 205 -18 204 -24 662 -11 833 l8 107 -60 0
c-55 0 -61 -2 -65 -22 -2 -13 -14 -93 -26 -178 -29 -200 -80 -403 -126 -499
-27 -56 -56 -95 -110 -149 -123 -123 -263 -173 -534 -192 -166 -11 -1277 -13
-1284 -2 -3 4 8 28 24 53 31 48 510 817 653 1049 193 311 219 353 224 366 4
12 -38 14 -244 14 l-249 0 -335 -532z"/>
</g>
</svg>
